<?xml version="1.0" encoding="utf-8"?>
<!-- Generator: Adobe Illustrator 24.2.3, SVG Export Plug-In . SVG Version: 6.00 Build 0)  -->
<svg version="1.1" id="Lager_1" xmlns="http://www.w3.org/2000/svg" xmlns:xlink="http://www.w3.org/1999/xlink" x="0px" y="0px"
	 viewBox="0 0 40 40.1" style="enable-background:new 0 0 40 40.1;" xml:space="preserve">
<style type="text/css">
	.st0{fill:#0000FF;}
</style>
<g>
	<g>
		<path class="st0" d="M20,40C8.9,40,0,31.1,0,20S8.9,0,20,0s20,8.9,20,20S31.1,40,20,40z M20,3.3C10.8,3.3,3.3,10.8,3.3,20
			S10.8,36.7,20,36.7S36.7,29.2,36.7,20S29.2,3.3,20,3.3z"/>
	</g>
	<g>
		<g>
			<path class="st0" d="M12.7,17.3c-0.9,0-1.7-0.8-1.7-1.7v-0.2c0-0.9,0.8-1.7,1.7-1.7s1.7,0.8,1.7,1.7v0.2
				C14.4,16.5,13.6,17.3,12.7,17.3z"/>
		</g>
		<g>
			<path class="st0" d="M27.3,17.3c-0.9,0-1.7-0.8-1.7-1.7v-0.2c0-0.9,0.8-1.7,1.7-1.7c0.9,0,1.7,0.8,1.7,1.7v0.2
				C29,16.5,28.3,17.3,27.3,17.3z"/>
		</g>
	</g>
	<g>
		<path class="st0" d="M20,29.3c-2.9,0-5.8-1.1-8-3.3c-0.7-0.7-0.7-1.7,0-2.4c0.7-0.7,1.7-0.7,2.4,0c3.1,3.1,8.2,3.1,11.3,0
			c0.7-0.7,1.7-0.7,2.4,0c0.7,0.7,0.7,1.7,0,2.4C25.8,28.2,22.9,29.3,20,29.3z"/>
	</g>
</g>
</svg>
